grf
version=1
nRows=9
nColumns=37
inDegrees=no
endheader
time	ground_force_1_vx	ground_force_1_vy	ground_force_1_vz	ground_force_1_px	ground_force_1_py	ground_force_1_pz	ground_moment_1_mx	ground_moment_1_my	ground_moment_1_mz	ground_force_2_vx	ground_force_2_vy	ground_force_2_vz	ground_force_2_px	ground_force_2_py	ground_force_2_pz	ground_moment_2_mx	ground_moment_2_my	ground_moment_2_mz	ground_force_3_vx	ground_force_3_vy	ground_force_3_vz	ground_force_3_px	ground_force_3_py	ground_force_3_pz	ground_moment_3_mx	ground_moment_3_my	ground_moment_3_mz	ground_force_4_vx	ground_force_4_vy	ground_force_4_vz	ground_force_4_px	ground_force_4_py	ground_force_4_pz	ground_moment_4_mx	ground_moment_4_my	ground_moment_4_mz
      5.10000000	      0.00000000	     -0.00000000	      0.00000000	      0.00000000	      0.00000000	      0.00000000	      0.00000000	      0.00000000	      0.00000000	     35.79581451	     -1.43934429	    -34.42468262	   -390.37958632	  -1137.64233157	      0.00000000	      0.00000000	     -0.00000000	   -552.10345377	      7.36923622	   -101.05842655	   -678.55932617	   -471.78258168	   -730.26158874	      0.00000000	     -0.00000000	     -0.00000000	  -4025.55630247	      0.00000000	     -0.00000000	      0.00000000	      0.00000000	      0.00000000	      0.00000000	      0.00000000	      0.00000000	      0.00000000
      5.11000000	      0.00000000	     -0.00000000	      0.00000000	      0.00000000	      0.00000000	      0.00000000	      0.00000000	      0.00000000	      0.00000000	     31.14096451	      1.08309639	    -44.45247650	   -393.50405520	  -1118.60737427	      0.00000000	      0.00000000	      0.00000000	    366.70441396	      5.75503549	   -102.60372975	   -677.12652588	   -471.14225696	   -730.01661451	      0.00000000	     -0.00000000	     -0.00000000	  -3948.38435870	      0.00000000	     -0.00000000	      0.00000000	      0.00000000	      0.00000000	      0.00000000	      0.00000000	      0.00000000	      0.00000000
      5.12000000	      0.00000000	     -0.00000000	      0.00000000	      0.00000000	      0.00000000	      0.00000000	      0.00000000	      0.00000000	      0.00000000	     -1.91975284	      3.81101584	    -64.99701691	   -388.58407597	  -1126.36548696	      0.00000000	      0.00000000	      0.00000000	    187.71789948	      4.04994684	   -103.00719487	   -673.56433105	   -471.06781826	   -730.30250783	      0.00000000	      0.00000000	     -0.00000000	  -3808.17439414	      0.00000000	     -0.00000000	      0.00000000	      0.00000000	      0.00000000	      0.00000000	      0.00000000	      0.00000000	      0.00000000
      5.13000000	      0.00000000	     -0.00000000	      0.00000000	      0.00000000	      0.00000000	      0.00000000	      0.00000000	      0.00000000	      0.00000000	    -22.76408005	      7.53034401	    -90.52364349	   -386.90087673	  -1130.63940712	      0.00000000	      0.00000000	      0.00000000	    339.96769191	      1.96313103	   -102.75503557	   -667.89007568	   -470.84743373	   -730.51155043	      0.00000000	      0.00000000	     -0.00000000	  -3541.10724563	      0.00000000	     -0.00000000	      0.00000000	      0.00000000	      0.00000000	      0.00000000	      0.00000000	      0.00000000	      0.00000000
      5.14000000	      0.00000000	     -0.00000000	      0.00000000	      0.00000000	      0.00000000	      0.00000000	      0.00000000	      0.00000000	      0.00000000	    -37.03967667	      7.62623215	   -114.82345581	   -392.25992582	  -1131.62618315	      0.00000000	      0.00000000	      0.00000000	    429.85480044	     -0.88502359	   -102.26214592	   -661.08215332	   -470.41252696	   -730.56153625	      0.00000000	      0.00000000	     -0.00000000	  -3267.61704156	      0.00000000	     -0.00000000	      0.00000000	      0.00000000	      0.00000000	      0.00000000	      0.00000000	      0.00000000	      0.00000000
      5.15000000	      0.00000000	     -0.00000000	      0.00000000	      0.00000000	      0.00000000	      0.00000000	      0.00000000	      0.00000000	      0.00000000	    -22.15102005	      5.81429052	   -157.60595703	   -415.40741750	  -1129.25986362	      0.00000000	      0.00000000	      0.00000000	   1048.14585571	     -4.08073735	   -100.88713038	   -650.48632812	   -469.67876846	   -730.13293858	      0.00000000	      0.00000000	      0.00000000	  -2907.27169225	      0.00000000	     -0.00000000	      0.00000000	      0.00000000	      0.00000000	      0.00000000	      0.00000000	      0.00000000	      0.00000000
      5.16000000	      0.00000000	     -0.00000000	      0.00000000	      0.00000000	      0.00000000	      0.00000000	      0.00000000	      0.00000000	      0.00000000	     -3.75121021	      3.99435329	   -216.63287354	   -441.47072180	  -1124.83355934	      0.00000000	      0.00000000	     -0.00000000	   1433.44069830	     -6.46159984	    -98.33006230	   -631.31701660	   -469.33239392	   -730.70728789	      0.00000000	      0.00000000	     -0.00000000	  -2615.71991930	      0.00000000	     -0.00000000	      0.00000000	      0.00000000	      0.00000000	      0.00000000	      0.00000000	      0.00000000	      0.00000000
      5.17000000	      0.00000000	     -0.00000000	      0.00000000	      0.00000000	      0.00000000	      0.00000000	      0.00000000	      0.00000000	      0.00000000	      2.41523623	     10.78688812	   -287.14566040	   -458.28528814	  -1123.54065148	      0.00000000	      0.00000000	      0.00000000	   1835.53550430	     -8.76882521	    -94.54128189	   -601.96325684	   -469.23913575	   -730.79754316	      0.00000000	      0.00000000	     -0.00000000	  -2360.28315358	      0.00000000	     -0.00000000	      0.00000000	      0.00000000	      0.00000000	      0.00000000	      0.00000000	      0.00000000	      0.00000000
      5.18000000	      0.00000000	     -0.00000000	      0.00000000	      0.00000000	      0.00000000	      0.00000000	      0.00000000	      0.00000000	      0.00000000	      0.00757884	     19.25379944	   -348.42007446	   -467.32637256	  -1123.89261085	      0.00000000	      0.00000000	      0.00000000	   1574.34226588	    -10.42381874	    -88.98330597	   -564.28100586	   -469.46459922	   -731.38948501	      0.00000000	      0.00000000	     -0.00000000	  -2192.51378203	      0.00000000	     -0.00000000	      0.00000000	      0.00000000	      0.00000000	      0.00000000	      0.00000000	      0.00000000	      0.00000000
